<?xml version="1.0" encoding="UTF-8" standalone="no"?>
<!-- Created with Inkscape (http://www.inkscape.org/) -->

<svg
   xmlns:dc="http://purl.org/dc/elements/1.1/"
   xmlns:cc="http://creativecommons.org/ns#"
   xmlns:rdf="http://www.w3.org/1999/02/22-rdf-syntax-ns#"
   xmlns:svg="http://www.w3.org/2000/svg"
   xmlns="http://www.w3.org/2000/svg"
   xmlns:sodipodi="http://sodipodi.sourceforge.net/DTD/sodipodi-0.dtd"
   xmlns:inkscape="http://www.inkscape.org/namespaces/inkscape"
   width="202.5"
   height="135"
   id="svg2"
   version="1.1"
   inkscape:version="0.48.4 r9939"
   sodipodi:docname="dice.svg">
  <defs
     id="defs4" />
  <sodipodi:namedview
     id="base"
     pagecolor="#ffffff"
     bordercolor="#666666"
     borderopacity="1.0"
     inkscape:pageopacity="0.0"
     inkscape:pageshadow="2"
     inkscape:zoom="1.979899"
     inkscape:cx="33.362549"
     inkscape:cy="64.606427"
     inkscape:document-units="px"
     inkscape:current-layer="layer1"
     showgrid="false"
     units="in"
     inkscape:window-width="1032"
     inkscape:window-height="568"
     inkscape:window-x="150"
     inkscape:window-y="150"
     inkscape:window-maximized="0"
     showguides="true"
     inkscape:guide-bbox="true">
    <sodipodi:guide
       orientation="1,0"
       position="67.5,0"
       id="guide2985" />
    <sodipodi:guide
       id="guide2987"
       position="135,0"
       orientation="1,0" />
    <sodipodi:guide
       orientation="0,1"
       position="0,67.5"
       id="guide2989" />
  </sodipodi:namedview>
  <metadata
     id="metadata7">
    <rdf:RDF>
      <cc:Work
         rdf:about="">
        <dc:format>image/svg+xml</dc:format>
        <dc:type
           rdf:resource="http://purl.org/dc/dcmitype/StillImage" />
        <dc:title></dc:title>
      </cc:Work>
    </rdf:RDF>
  </metadata>
  <g
     inkscape:label="Layer 1"
     inkscape:groupmode="layer"
     id="layer1">
    <path
       sodipodi:type="arc"
       style="fill:#000000;stroke:none"
       id="path2996"
       sodipodi:cx="33.75"
       sodipodi:cy="33.75"
       sodipodi:rx="5"
       sodipodi:ry="5"
       d="m 38.75,33.75 a 5,5 0 1 1 -10,0 5,5 0 1 1 10,0 z" />
    <g
       id="g3092">
      <path
         sodipodi:type="arc"
         style="fill:#000000;stroke:none"
         id="path2998"
         sodipodi:cx="84.375"
         sodipodi:cy="50.625"
         sodipodi:rx="5"
         sodipodi:ry="5"
         d="m 89.375,50.625 a 5,5 0 1 1 -10,0 5,5 0 1 1 10,0 z" />
      <path
         d="m 123.125,16.875 a 5,5 0 1 1 -10,0 5,5 0 1 1 10,0 z"
         sodipodi:ry="5"
         sodipodi:rx="5"
         sodipodi:cy="16.875"
         sodipodi:cx="118.125"
         id="path3000"
         style="fill:#000000;stroke:none"
         sodipodi:type="arc" />
    </g>
    <g
       id="g3081"
       transform="translate(135,0)"
       inkscape:export-filename="C:\xampp\htdocs\OneMany\htdocs\images\dice.png"
       inkscape:export-xdpi="90"
       inkscape:export-ydpi="90">
      <path
         transform="translate(-67.5,0)"
         sodipodi:type="arc"
         style="fill:#000000;stroke:none"
         id="path3024"
         sodipodi:cx="84.375"
         sodipodi:cy="118.125"
         sodipodi:rx="5"
         sodipodi:ry="5"
         d="m 89.375,118.125 c 0,2.76142 -2.238576,5 -5,5 -2.761424,0 -5,-2.23858 -5,-5 0,-2.76142 2.238576,-5 5,-5 2.761424,0 5,2.23858 5,5 z" />
      <path
         transform="translate(-67.5,0)"
         d="m 123.125,84.375 c 0,2.761424 -2.23858,5 -5,5 -2.76142,0 -5,-2.238576 -5,-5 0,-2.761424 2.23858,-5 5,-5 2.76142,0 5,2.238576 5,5 z"
         sodipodi:ry="5"
         sodipodi:rx="5"
         sodipodi:cy="84.375"
         sodipodi:cx="118.125"
         id="path3026"
         style="fill:#000000;stroke:none"
         sodipodi:type="arc" />
      <path
         transform="matrix(1,0,0,-1,-67.5,202.5)"
         d="m 89.375,118.125 c 0,2.76142 -2.238576,5 -5,5 -2.761424,0 -5,-2.23858 -5,-5 0,-2.76142 2.238576,-5 5,-5 2.761424,0 5,2.23858 5,5 z"
         sodipodi:ry="5"
         sodipodi:rx="5"
         sodipodi:cy="118.125"
         sodipodi:cx="84.375"
         id="path3030"
         style="fill:#000000;stroke:none"
         sodipodi:type="arc" />
      <path
         transform="matrix(1,0,0,-1,-67.5,202.5)"
         sodipodi:type="arc"
         style="fill:#000000;stroke:none"
         id="path3032"
         sodipodi:cx="118.125"
         sodipodi:cy="84.375"
         sodipodi:rx="5"
         sodipodi:ry="5"
         d="m 123.125,84.375 c 0,2.761424 -2.23858,5 -5,5 -2.76142,0 -5,-2.238576 -5,-5 0,-2.761424 2.23858,-5 5,-5 2.76142,0 5,2.238576 5,5 z" />
    </g>
    <g
       id="g3087">
      <path
         sodipodi:type="arc"
         style="fill:#000000;stroke:none"
         id="path3004"
         sodipodi:cx="185.625"
         sodipodi:cy="16.875"
         sodipodi:rx="5"
         sodipodi:ry="5"
         d="m 190.625,16.875 a 5,5 0 1 1 -10,0 5,5 0 1 1 10,0 z" />
      <path
         d="m 156.875,50.625 a 5,5 0 1 1 -10,0 5,5 0 1 1 10,0 z"
         sodipodi:ry="5"
         sodipodi:rx="5"
         sodipodi:cy="50.625"
         sodipodi:cx="151.875"
         id="path3006"
         style="fill:#000000;stroke:none"
         sodipodi:type="arc" />
      <path
         transform="translate(135,0)"
         sodipodi:type="arc"
         style="fill:#000000;stroke:none"
         id="path3044"
         sodipodi:cx="33.75"
         sodipodi:cy="33.75"
         sodipodi:rx="5"
         sodipodi:ry="5"
         d="m 38.75,33.75 a 5,5 0 1 1 -10,0 5,5 0 1 1 10,0 z" />
    </g>
    <g
       id="g3074">
      <path
         d="m 89.375,118.125 a 5,5 0 1 1 -10,0 5,5 0 1 1 10,0 z"
         sodipodi:ry="5"
         sodipodi:rx="5"
         sodipodi:cy="118.125"
         sodipodi:cx="84.375"
         id="path3008"
         style="fill:#000000;stroke:none"
         sodipodi:type="arc" />
      <path
         sodipodi:type="arc"
         style="fill:#000000;stroke:none"
         id="path3010"
         sodipodi:cx="118.125"
         sodipodi:cy="84.375"
         sodipodi:rx="5"
         sodipodi:ry="5"
         d="m 123.125,84.375 a 5,5 0 1 1 -10,0 5,5 0 1 1 10,0 z" />
      <path
         transform="matrix(1,0,0,-1,0,202.5)"
         sodipodi:type="arc"
         style="fill:#000000;stroke:none"
         id="path3040"
         sodipodi:cx="84.375"
         sodipodi:cy="118.125"
         sodipodi:rx="5"
         sodipodi:ry="5"
         d="m 89.375,118.125 a 5,5 0 1 1 -10,0 5,5 0 1 1 10,0 z" />
      <path
         transform="matrix(1,0,0,-1,0,202.5)"
         d="m 123.125,84.375 a 5,5 0 1 1 -10,0 5,5 0 1 1 10,0 z"
         sodipodi:ry="5"
         sodipodi:rx="5"
         sodipodi:cy="84.375"
         sodipodi:cx="118.125"
         id="path3042"
         style="fill:#000000;stroke:none"
         sodipodi:type="arc" />
      <path
         transform="translate(67.5,67.5)"
         sodipodi:type="arc"
         style="fill:#000000;stroke:none"
         id="path3046"
         sodipodi:cx="33.75"
         sodipodi:cy="33.75"
         sodipodi:rx="5"
         sodipodi:ry="5"
         d="m 38.75,33.75 a 5,5 0 1 1 -10,0 5,5 0 1 1 10,0 z" />
    </g>
    <g
       id="g3062"
       transform="translate(-135,0)">
      <path
         transform="translate(67.5,0)"
         sodipodi:type="arc"
         style="fill:#000000;stroke:none"
         id="path3018"
         sodipodi:cx="84.375"
         sodipodi:cy="118.125"
         sodipodi:rx="5"
         sodipodi:ry="5"
         d="m 89.375,118.125 c 0,2.76142 -2.238576,5 -5,5 -2.761424,0 -5,-2.23858 -5,-5 0,-2.76142 2.238576,-5 5,-5 2.761424,0 5,2.23858 5,5 z" />
      <path
         transform="translate(67.5,0)"
         d="m 123.125,84.375 c 0,2.761424 -2.23858,5 -5,5 -2.76142,0 -5,-2.238576 -5,-5 0,-2.761424 2.23858,-5 5,-5 2.76142,0 5,2.238576 5,5 z"
         sodipodi:ry="5"
         sodipodi:rx="5"
         sodipodi:cy="84.375"
         sodipodi:cx="118.125"
         id="path3020"
         style="fill:#000000;stroke:none"
         sodipodi:type="arc" />
      <path
         transform="matrix(1,0,0,-1,67.5,202.5)"
         d="m 89.375,118.125 c 0,2.76142 -2.238576,5 -5,5 -2.761424,0 -5,-2.23858 -5,-5 0,-2.76142 2.238576,-5 5,-5 2.761424,0 5,2.23858 5,5 z"
         sodipodi:ry="5"
         sodipodi:rx="5"
         sodipodi:cy="118.125"
         sodipodi:cx="84.375"
         id="path3050"
         style="fill:#000000;stroke:none"
         sodipodi:type="arc" />
      <path
         transform="matrix(1,0,0,-1,67.5,202.5)"
         sodipodi:type="arc"
         style="fill:#000000;stroke:none"
         id="path3052"
         sodipodi:cx="118.125"
         sodipodi:cy="84.375"
         sodipodi:rx="5"
         sodipodi:ry="5"
         d="m 123.125,84.375 c 0,2.761424 -2.23858,5 -5,5 -2.76142,0 -5,-2.238576 -5,-5 0,-2.761424 2.23858,-5 5,-5 2.76142,0 5,2.238576 5,5 z" />
      <path
         d="m 38.75,33.75 c 0,2.761424 -2.238576,5 -5,5 -2.761424,0 -5,-2.238576 -5,-5 0,-2.761424 2.238576,-5 5,-5 2.761424,0 5,2.238576 5,5 z"
         sodipodi:ry="5"
         sodipodi:rx="5"
         sodipodi:cy="33.75"
         sodipodi:cx="33.75"
         id="path3058"
         style="fill:#000000;stroke:none"
         sodipodi:type="arc"
         transform="translate(151.875,67.5)" />
      <path
         transform="translate(118.125,67.5)"
         sodipodi:type="arc"
         style="fill:#000000;stroke:none"
         id="path3060"
         sodipodi:cx="33.75"
         sodipodi:cy="33.75"
         sodipodi:rx="5"
         sodipodi:ry="5"
         d="m 38.75,33.75 c 0,2.761424 -2.238576,5 -5,5 -2.761424,0 -5,-2.238576 -5,-5 0,-2.761424 2.238576,-5 5,-5 2.761424,0 5,2.238576 5,5 z" />
    </g>
  </g>
</svg>
