<?xml version="1.0" encoding="UTF-8" standalone="no"?>
<!-- Created with Inkscape (http://www.inkscape.org/) -->

<svg
   xmlns:dc="http://purl.org/dc/elements/1.1/"
   xmlns:cc="http://creativecommons.org/ns#"
   xmlns:rdf="http://www.w3.org/1999/02/22-rdf-syntax-ns#"
   xmlns:svg="http://www.w3.org/2000/svg"
   xmlns="http://www.w3.org/2000/svg"
   xmlns:sodipodi="http://sodipodi.sourceforge.net/DTD/sodipodi-0.dtd"
   xmlns:inkscape="http://www.inkscape.org/namespaces/inkscape"
   width="230"
   height="230"
   id="svg2"
   version="1.1"
   inkscape:version="0.48.4 r9939"
   sodipodi:docname="mortgaged-decal.svg">
  <defs
     id="defs4" />
  <sodipodi:namedview
     id="base"
     pagecolor="#ffffff"
     bordercolor="#666666"
     borderopacity="1.0"
     inkscape:pageopacity="0.0"
     inkscape:pageshadow="2"
     inkscape:zoom="1.4"
     inkscape:cx="289.68501"
     inkscape:cy="72.642394"
     inkscape:document-units="px"
     inkscape:current-layer="svg2"
     showgrid="false"
     inkscape:window-width="1600"
     inkscape:window-height="838"
     inkscape:window-x="-8"
     inkscape:window-y="-8"
     inkscape:window-maximized="1" />
  <metadata
     id="metadata7">
    <rdf:RDF>
      <cc:Work
         rdf:about="">
        <dc:format>image/svg+xml</dc:format>
        <dc:type
           rdf:resource="http://purl.org/dc/dcmitype/StillImage" />
        <dc:title></dc:title>
      </cc:Work>
    </rdf:RDF>
  </metadata>
  <g
     id="g3058"
     inkscape:groupmode="layer"
     inkscape:label="precutting"
     style="display:none">
    <rect
       ry="24.285715"
       y="87.142853"
       x="12.5"
       height="55.714287"
       width="205"
       id="rect3060"
       style="fill:#aa0000;fill-opacity:0.75;stroke:none" />
    <text
       sodipodi:linespacing="125%"
       id="text3062"
       y="125.7373"
       x="15.493164"
       style="font-size:30px;font-weight:bold;line-height:125%;letter-spacing:0px;word-spacing:0px;fill:#000000;fill-opacity:1;stroke:none;font-family:Sans"
       xml:space="preserve"><tspan
         y="125.7373"
         x="15.493164"
         id="tspan3064"
         sodipodi:role="line">MORTGAGED</tspan></text>
    <rect
       style="fill:none;stroke:#aa0000;stroke-width:5px;stroke-opacity:0.75"
       id="rect3066"
       width="215"
       height="65.714287"
       x="7.5"
       y="82.142853"
       ry="29.285715" />
  </g>
  <g
     inkscape:label="postcutting"
     inkscape:groupmode="layer"
     id="g3068"
     transform="matrix(0.8660254,-0.5,0.5,0.8660254,-42.092921,72.907079)">
    <path
       style="fill:#aa0000;fill-opacity:0.75;stroke:none"
       d="M 36.78125,79.65625 C 19.215207,79.65625 5,93.871457 5,111.4375 l 0,7.125 c 0,17.56604 14.215207,31.78125 31.78125,31.78125 l 156.4375,0 C 210.78479,150.34375 225,136.12854 225,118.5625 l 0,-7.125 C 225,93.871457 210.78479,79.65625 193.21875,79.65625 l -156.4375,0 z m 0,5 156.4375,0 C 208.10128,84.65625 220,96.554971 220,111.4375 l 0,7.125 c 0,14.88253 -11.89872,26.78125 -26.78125,26.78125 l -156.4375,0 C 21.898721,145.34375 10,133.44503 10,118.5625 l 0,-7.125 C 10,96.554971 21.898721,84.65625 36.78125,84.65625 z m 0,2.5 C 23.326964,87.15625 12.5,97.983214 12.5,111.4375 l 0,7.125 c 0,13.45429 10.826964,24.28125 24.28125,24.28125 l 156.4375,0 c 13.45429,0 24.28125,-10.82696 24.28125,-24.28125 l 0,-7.125 c 0,-13.454286 -10.82696,-24.28125 -24.28125,-24.28125 l -156.4375,0 z m 15.40625,16.75 c 3.164048,2e-5 5.725569,0.97463 7.625,2.9375 1.899393,1.96291 2.843728,4.69142 2.84375,8.1875 -2.2e-5,3.4668 -0.959006,6.16699 -2.84375,8.125 -1.884783,1.958 -4.408218,2.9375 -7.5625,2.9375 -3.193368,0 -5.708991,-0.958 -7.59375,-2.90625 -1.884768,-1.94823 -2.843751,-4.64453 -2.84375,-8.0625 -10e-7,-2.18749 0.345701,-4.01561 1,-5.5 0.488278,-1.09374 1.15527,-2.06834 2,-2.9375 0.844722,-0.86912 1.744135,-1.51756 2.75,-1.9375 1.337882,-0.56639 2.876944,-0.84373 4.625,-0.84375 z m 63.75,0 c 2.666,2e-5 4.75096,0.53811 6.25,1.65625 1.499,1.11819 2.47655,2.68361 2.90625,4.65625 L 120.78125,111 c -0.30275,-1.05467 -0.85256,-1.85838 -1.6875,-2.46875 -0.83498,-0.61033 -1.90626,-0.93748 -3.15625,-0.9375 -1.89454,2e-5 -3.38185,0.61134 -4.5,1.8125 -1.11818,1.20119 -1.68751,2.98048 -1.6875,5.34375 -1e-5,2.54884 0.58593,4.47559 1.71875,5.75 1.1328,1.27442 2.60156,1.90626 4.4375,1.90625 0.90819,1e-5 1.80565,-0.17481 2.71875,-0.53125 0.91307,-0.35645 1.72069,-0.80468 2.375,-1.3125 l 0,-2.71875 -4.96875,0 0,-3.625 9.34375,0 0,8.5625 c -0.90822,0.87891 -2.21389,1.64356 -3.9375,2.3125 -1.72365,0.66895 -3.48243,1 -5.25,1 -2.2461,0 -4.20509,-0.46386 -5.875,-1.40625 -1.66993,-0.94238 -2.91016,-2.27832 -3.75,-4.03125 -0.83984,-1.75293 -1.28126,-3.65819 -1.28125,-5.71875 -1e-5,-2.23631 0.46874,-4.23046 1.40625,-5.96875 0.93749,-1.73827 2.31835,-3.07224 4.125,-4 1.37694,-0.71287 3.07421,-1.06248 5.125,-1.0625 z m 45,0 c 2.666,2e-5 4.75096,0.53811 6.25,1.65625 1.499,1.11819 2.47655,2.68361 2.90625,4.65625 L 165.78125,111 c -0.30275,-1.05467 -0.85256,-1.85838 -1.6875,-2.46875 -0.83498,-0.61033 -1.90626,-0.93748 -3.15625,-0.9375 -1.89454,2e-5 -3.38185,0.61134 -4.5,1.8125 -1.11818,1.20119 -1.68751,2.98048 -1.6875,5.34375 -1e-5,2.54884 0.58593,4.47559 1.71875,5.75 1.1328,1.27442 2.60156,1.90626 4.4375,1.90625 0.90819,1e-5 1.80565,-0.17481 2.71875,-0.53125 0.91307,-0.35645 1.72069,-0.80468 2.375,-1.3125 l 0,-2.71875 -4.96875,0 0,-3.625 9.34375,0 0,8.5625 c -0.90822,0.87891 -2.21389,1.64356 -3.9375,2.3125 -1.72365,0.66895 -3.48243,1 -5.25,1 -2.2461,0 -4.20509,-0.46386 -5.875,-1.40625 -1.66993,-0.94238 -2.91016,-2.27832 -3.75,-4.03125 -0.83984,-1.75293 -1.28126,-3.65819 -1.28125,-5.71875 -1e-5,-2.23631 0.46874,-4.23046 1.40625,-5.96875 0.93749,-1.73827 2.31835,-3.07224 4.125,-4 1.37694,-0.71287 3.07421,-1.06248 5.125,-1.0625 z M 17.625,104.25 l 6.46875,0 L 28,118.90625 31.84375,104.25 l 6.53125,0 0,21.5 -4.03125,0 0,-16.90625 -4.28125,16.90625 -4.15625,0 -4.25,-16.90625 0,16.90625 -4.03125,0 0,-21.5 z m 48.40625,0 9.125,0 c 2.294908,2e-5 3.959946,0.20803 5,0.59375 1.040022,0.38576 1.874982,1.07619 2.5,2.0625 0.624981,0.98634 0.93748,2.10548 0.9375,3.375 -2e-5,1.61134 -0.459004,2.95021 -1.40625,4 -0.947283,1.04982 -2.365251,1.69532 -4.25,1.96875 0.937485,0.54688 1.702133,1.15821 2.3125,1.8125 0.610335,0.6543 1.433576,1.83009 2.46875,3.5 l 2.625,4.1875 -5.1875,0 -3.125,-4.6875 c -1.113294,-1.66992 -1.902355,-2.72168 -2.3125,-3.15625 C 74.308584,117.47169 73.896475,117.16114 73.4375,117 72.978507,116.83888 72.246086,116.78126 71.25,116.78125 l -0.875,0 0,8.96875 -4.34375,0 0,-21.5 z m 20.125,0 17.0625,0 0,3.65625 -6.34375,0 0,17.84375 -4.34375,0 0,-17.84375 -6.375,0 0,-3.65625 z m 49.375,0 4.59375,0 8.59375,21.5 -4.71875,0 -1.875,-4.90625 -8.59375,0 -1.75,4.90625 -4.59375,0 8.34375,-21.5 z m 38.8125,0 15.9375,0 0,3.65625 -11.59375,0 0,4.75 10.78125,0 0,3.625 -10.78125,0 0,5.84375 12,0 0,3.625 -16.34375,0 0,-21.5 z m 20.03125,0 7.9375,0 c 1.78709,2e-5 3.15624,0.16409 4.09375,0.4375 1.25975,0.37112 2.32029,1.02151 3.21875,1.96875 0.89842,0.94729 1.59373,2.09669 2.0625,3.46875 0.46873,1.37208 0.68748,3.08204 0.6875,5.09375 -2e-5,1.76759 -0.21681,3.28321 -0.65625,4.5625 -0.53713,1.56251 -1.28518,2.81445 -2.28125,3.78125 -0.75197,0.73242 -1.78322,1.30859 -3.0625,1.71875 -0.95704,0.30273 -2.2422,0.46875 -3.84375,0.46875 l -8.15625,0 0,-21.5 z M 52.25,107.59375 c -1.78712,2e-5 -3.218759,0.61818 -4.3125,1.84375 -1.093757,1.2256 -1.656256,3.09181 -1.65625,5.5625 -6e-6,2.43165 0.564447,4.24512 1.6875,5.5 1.123038,1.25489 2.552724,1.90626 4.28125,1.90625 1.728502,1e-5 3.141587,-0.62988 4.25,-1.875 1.108381,-1.24511 1.656233,-3.10351 1.65625,-5.59375 -1.7e-5,-2.46092 -0.545915,-4.3203 -1.625,-5.53125 -1.079116,-1.21092 -2.494154,-1.81248 -4.28125,-1.8125 z m 18.125,0.3125 0,5.4375 3.1875,0 c 2.080066,1e-5 3.388659,-0.0742 3.90625,-0.25 0.517564,-0.17577 0.925767,-0.47655 1.21875,-0.90625 0.292954,-0.42967 0.437484,-0.98046 0.4375,-1.625 -1.6e-5,-0.72264 -0.176773,-1.30565 -0.5625,-1.75 -0.385756,-0.44432 -0.953138,-0.72654 -1.65625,-0.84375 -0.351575,-0.0488 -1.398449,-0.0625 -3.15625,-0.0625 l -3.375,0 z m 128.34375,0 0,14.21875 3.21875,0 c 1.21093,1e-5 2.08787,-0.082 2.625,-0.21875 0.70311,-0.17577 1.28612,-0.45507 1.75,-0.875 0.46386,-0.41992 0.86326,-1.13183 1.15625,-2.09375 0.29295,-0.96191 0.43748,-2.27733 0.4375,-3.9375 -2e-5,-1.66014 -0.14455,-2.92382 -0.4375,-3.8125 -0.29299,-0.88866 -0.72267,-1.56444 -1.25,-2.0625 -0.52736,-0.49803 -1.18946,-0.85545 -2,-1.03125 -0.60548,-0.1367 -1.79493,-0.18748 -3.5625,-0.1875 l -1.9375,0 z m -60.9375,1.375 -2.90625,7.96875 5.875,0 -2.96875,-7.96875 z"
       id="rect3070"
       inkscape:connector-curvature="0" />
  </g>
</svg>
