<?xml version="1.0" encoding="UTF-8" standalone="no"?>
<!-- Created with Inkscape (http://www.inkscape.org/) -->

<svg
   xmlns:dc="http://purl.org/dc/elements/1.1/"
   xmlns:cc="http://creativecommons.org/ns#"
   xmlns:rdf="http://www.w3.org/1999/02/22-rdf-syntax-ns#"
   xmlns:svg="http://www.w3.org/2000/svg"
   xmlns="http://www.w3.org/2000/svg"
   xmlns:sodipodi="http://sodipodi.sourceforge.net/DTD/sodipodi-0.dtd"
   xmlns:inkscape="http://www.inkscape.org/namespaces/inkscape"
   width="464.28571"
   height="88.571411"
   id="svg2"
   version="1.1"
   inkscape:version="0.48.4 r9939"
   sodipodi:docname="name.svg">
  <defs
     id="defs4" />
  <sodipodi:namedview
     id="base"
     pagecolor="#ffffff"
     bordercolor="#666666"
     borderopacity="1.0"
     inkscape:pageopacity="0.0"
     inkscape:pageshadow="2"
     inkscape:zoom="1.4"
     inkscape:cx="248.50416"
     inkscape:cy="87.729099"
     inkscape:document-units="px"
     inkscape:current-layer="layer2"
     showgrid="false"
     inkscape:window-width="1055"
     inkscape:window-height="660"
     inkscape:window-x="50"
     inkscape:window-y="57"
     inkscape:window-maximized="0"
     fit-margin-top="0"
     fit-margin-left="0"
     fit-margin-right="0"
     fit-margin-bottom="0" />
  <metadata
     id="metadata7">
    <rdf:RDF>
      <cc:Work
         rdf:about="">
        <dc:format>image/svg+xml</dc:format>
        <dc:type
           rdf:resource="http://purl.org/dc/dcmitype/StillImage" />
        <dc:title></dc:title>
      </cc:Work>
    </rdf:RDF>
  </metadata>
  <g
     inkscape:groupmode="layer"
     id="layer2"
     inkscape:label="Layer 2">
    <rect
       ry="20.714287"
       y="0"
       x="0"
       height="88.571411"
       width="464.28571"
       id="rect2997"
       style="fill:#ff0000" />
    <rect
       ry="18.642859"
       y="4.4285698"
       x="6.9642792"
       height="79.714272"
       width="450.35715"
       id="rect2999"
       style="fill:none;stroke:#ffffff;stroke-width:3px" />
    <g
       style="font-size:85px;font-style:normal;font-variant:normal;font-weight:normal;font-stretch:normal;text-align:start;line-height:125%;letter-spacing:0px;word-spacing:0px;writing-mode:lr-tb;text-anchor:start;fill:#ffffff;fill-opacity:1;stroke:none;font-family:OCR A Extended;-inkscape-font-specification:OCR A Extended"
       id="text3005">
      <path
         d="m 86.505646,21.81134 7.678222,15.646973 c 1.079059,2.130566 1.618609,4.440948 1.618653,6.931152 -4.4e-5,2.434921 -0.539594,4.731468 -1.618653,6.889649 l -7.678222,15.480957 c -1.63252,3.403322 -4.399444,5.10498 -8.300781,5.10498 -1.853866,0 -3.520938,-0.484211 -5.001221,-1.452636 -1.480326,-0.968423 -2.594013,-2.185869 -3.341065,-3.652344 L 62.142853,51.279114 C 61.119081,49.25928 60.6072,46.962732 60.607208,44.389465 c -8e-6,-2.573212 0.511873,-4.883594 1.535645,-6.931152 L 69.862579,21.81134 c 1.743145,-3.403267 4.523904,-5.104925 8.342286,-5.10498 3.873667,5.5e-5 6.640592,1.701713 8.300781,5.10498 z m -10.625,3.486328 -7.22168,14.692383 c -0.664078,1.466502 -0.996109,2.905303 -0.996094,4.316407 -1.5e-5,1.521835 0.332016,2.974471 0.996094,4.35791 l 7.429199,14.858398 c 0.387346,0.913093 1.092911,1.369636 2.1167,1.369629 0.885389,7e-6 1.563286,-0.456536 2.033691,-1.369629 l 7.470703,-14.858398 c 0.691696,-1.466447 1.037561,-2.919082 1.037598,-4.35791 -3.7e-5,-1.521781 -0.345902,-2.960582 -1.037598,-4.316407 L 80.404572,25.297668 c -0.470406,-1.079053 -1.203641,-1.618604 -2.199707,-1.618652 -0.996119,4.8e-5 -1.770858,0.539599 -2.324219,1.618652 z"
         style=""
         id="path2987" />
      <path
         d="m 147.10135,20.275696 0,51.589355 -9.37988,0 -18.75977,-42.832031 0,39.345703 c -2e-5,0.968427 -0.33896,1.791587 -1.01685,2.469483 -0.67791,0.677897 -1.50107,1.016845 -2.46948,1.016845 -0.96843,0 -1.79159,-0.338948 -2.46948,-1.016845 -0.67791,-0.677896 -1.01685,-1.501056 -1.01685,-2.469483 l 0,-51.672363 9.25538,0 18.80126,42.749023 0,-39.179687 c -3e-5,-0.968372 0.35275,-1.805367 1.05835,-2.510987 0.70553,-0.705511 1.54253,-1.058294 2.51099,-1.058349 0.96838,5.5e-5 1.79154,0.345921 2.46948,1.037598 0.67786,0.691785 1.01681,1.535697 1.01685,2.531738 z"
         style=""
         id="path2989" />
      <path
         d="m 194.91385,23.762024 -24.65332,0 0,16.975098 10.625,0 c 0.94073,3.1e-5 1.75697,0.345896 2.44873,1.037597 0.6917,0.691761 1.03757,1.508004 1.0376,2.448731 -3e-5,0.99612 -0.33898,1.840032 -1.01685,2.531738 -0.67792,0.691756 -1.50108,1.037622 -2.46948,1.037598 l -10.625,0 0,17.099609 24.73633,0 c 0.94071,7e-6 1.75695,0.338955 2.44873,1.016846 0.69169,0.677902 1.03755,1.501062 1.03759,2.469482 -4e-5,0.968427 -0.35282,1.791587 -1.05834,2.469483 -0.70561,0.677897 -1.54261,1.016845 -2.51099,1.016845 l -31.62598,0 0,-55.158691 31.62598,0 c 0.96838,5.5e-5 1.80538,0.352838 2.51099,1.058349 0.70552,0.70562 1.0583,1.542615 1.05834,2.510987 -4e-5,0.940806 -0.35282,1.757048 -1.05834,2.44873 -0.70561,0.69178 -1.54261,1.037646 -2.51099,1.037598 z"
         style=""
         id="path2991" />
      <path
         d="m 228.61502,38.371399 0,-1.784668 -7.22168,-10.292969 0,42.084961 c -1e-5,0.968427 -0.33896,1.791587 -1.01684,2.469483 -0.67792,0.677897 -1.50108,1.016845 -2.46949,1.016845 -0.96843,0 -1.79159,-0.345865 -2.46948,-1.037597 -0.67791,-0.69173 -1.01685,-1.507973 -1.01685,-2.448731 l 0,-51.672363 9.00635,0 8.59131,12.492676 8.84033,-12.492676 8.84034,0 0,51.672363 c -5e-5,0.968427 -0.35283,1.791587 -1.05835,2.469483 -0.70561,0.677897 -1.54261,1.016845 -2.51099,1.016845 -0.9408,0 -1.75704,-0.345865 -2.44873,-1.037597 -0.69177,-0.69173 -1.03764,-1.507973 -1.0376,-2.448731 l 0,-41.918945 -7.05566,9.960937 0,1.950684 c -3e-5,0.940788 -0.3459,1.75703 -1.0376,2.44873 -0.69176,0.691763 -1.508,1.037628 -2.44873,1.037598 -0.96845,3e-5 -1.79161,-0.345835 -2.46948,-1.037598 -0.67792,-0.6917 -1.01687,-1.507942 -1.01685,-2.44873 z"
         style=""
         id="path2993" />
      <path
         d="m 266.09305,67.009094 14.11133,-47.687988 c 0.55336,-1.74311 1.71547,-2.614691 3.48632,-2.614746 1.71547,5.5e-5 2.79457,0.73329 3.23731,2.199707 l 13.90381,48.435058 c 0.11063,0.359705 0.16597,0.705571 0.16601,1.037598 -4e-5,0.968427 -0.33207,1.791587 -0.99609,2.469483 -0.66411,0.677897 -1.42501,1.016845 -2.28272,1.016845 -1.82621,0 -2.98831,-0.843912 -3.48632,-2.531738 l -2.82227,-9.462891 -15.896,0 -3.07128,10.126953 c -0.083,0.44271 -0.42889,0.864666 -1.0376,1.26587 -0.60874,0.401204 -1.2728,0.601806 -1.99219,0.601806 -1.02377,0 -1.86769,-0.345865 -2.53174,-1.037597 -0.66407,-0.69173 -0.9961,-1.535642 -0.99609,-2.531739 -1e-5,-0.415035 0.0692,-0.843908 0.20752,-1.286621 z m 17.51465,-34.157715 -5.97657,19.963379 11.74561,0 z"
         style=""
         id="path2995" />
      <path
         d="m 352.29666,20.275696 0,51.589355 -9.37988,0 -18.75977,-42.832031 0,39.345703 c -1e-5,0.968427 -0.33896,1.791587 -1.01684,2.469483 -0.67791,0.677897 -1.50107,1.016845 -2.46949,1.016845 -0.96843,0 -1.79159,-0.338948 -2.46948,-1.016845 -0.6779,-0.677896 -1.01685,-1.501056 -1.01684,-2.469483 l 0,-51.672363 9.25537,0 18.80127,42.749023 0,-39.179687 c -4e-5,-0.968372 0.35274,-1.805367 1.05835,-2.510987 0.70552,-0.705511 1.54252,-1.058294 2.51098,-1.058349 0.96839,5.5e-5 1.79155,0.345921 2.46949,1.037598 0.67785,0.691785 1.0168,1.535697 1.01684,2.531738 z"
         style=""
         id="path2997" />
      <path
         d="m 389.65018,45.427063 0,22.95166 c -3e-5,0.968427 -0.3459,1.791587 -1.0376,2.469483 -0.69176,0.677897 -1.508,1.016845 -2.44873,1.016845 -0.99612,0 -1.84003,-0.338948 -2.53174,-1.016845 -0.69175,-0.677896 -1.03762,-1.501056 -1.0376,-2.469483 l 0,-22.95166 -14.02832,-17.763672 0,-7.387695 c -1e-5,-0.996041 0.33894,-1.839953 1.01685,-2.531738 0.67789,-0.691677 1.50105,-1.037543 2.46948,-1.037598 0.96841,5.5e-5 1.80541,0.352838 2.51099,1.058349 0.70555,0.70562 1.05833,1.542615 1.05835,2.510987 l 0,4.772949 10.45898,13.48877 10.625,-13.405762 0,-4.855957 c -4e-5,-0.968372 0.34583,-1.805367 1.0376,-2.510987 0.69169,-0.705511 1.50793,-1.058294 2.44873,-1.058349 0.91304,5.5e-5 1.72237,0.325169 2.42798,0.975342 0.70552,0.650281 1.0583,1.514945 1.05835,2.593994 l 0,7.304687 z"
         style=""
         id="path2999" />
    </g>
  </g>
</svg>
