<?xml version="1.0" encoding="UTF-8" standalone="no"?>
<!-- Created with Inkscape (http://www.inkscape.org/) -->

<svg
   xmlns:dc="http://purl.org/dc/elements/1.1/"
   xmlns:cc="http://creativecommons.org/ns#"
   xmlns:rdf="http://www.w3.org/1999/02/22-rdf-syntax-ns#"
   xmlns:svg="http://www.w3.org/2000/svg"
   xmlns="http://www.w3.org/2000/svg"
   xmlns:sodipodi="http://sodipodi.sourceforge.net/DTD/sodipodi-0.dtd"
   xmlns:inkscape="http://www.inkscape.org/namespaces/inkscape"
   width="230"
   height="230"
   id="svg2"
   version="1.1"
   inkscape:version="0.48.4 r9939"
   sodipodi:docname="sold-decal.svg">
  <defs
     id="defs4" />
  <sodipodi:namedview
     id="base"
     pagecolor="#ffffff"
     bordercolor="#666666"
     borderopacity="1.0"
     inkscape:pageopacity="0.0"
     inkscape:pageshadow="2"
     inkscape:zoom="1.4"
     inkscape:cx="289.68501"
     inkscape:cy="72.642394"
     inkscape:document-units="px"
     inkscape:current-layer="svg2"
     showgrid="false"
     inkscape:window-width="1600"
     inkscape:window-height="838"
     inkscape:window-x="-8"
     inkscape:window-y="-8"
     inkscape:window-maximized="1" />
  <metadata
     id="metadata7">
    <rdf:RDF>
      <cc:Work
         rdf:about="">
        <dc:format>image/svg+xml</dc:format>
        <dc:type
           rdf:resource="http://purl.org/dc/dcmitype/StillImage" />
        <dc:title></dc:title>
      </cc:Work>
    </rdf:RDF>
  </metadata>
  <g
     inkscape:label="precutting"
     inkscape:groupmode="layer"
     id="layer1"
     style="display:none">
    <rect
       style="fill:#00aa00;fill-opacity:0.75;stroke:none"
       id="rect2989"
       width="155"
       height="65.714287"
       x="37.5"
       y="82.142853"
       ry="24.285715" />
    <text
       xml:space="preserve"
       style="font-size:50px;font-weight:bold;line-height:125%;letter-spacing:0px;word-spacing:0px;fill:#000000;fill-opacity:1;stroke:none;font-family:Sans"
       x="45.871582"
       y="132.8833"
       id="text2985"
       sodipodi:linespacing="125%"><tspan
         sodipodi:role="line"
         id="tspan2987"
         x="45.871582"
         y="132.8833">SOLD</tspan></text>
    <rect
       ry="29.285715"
       y="77.142853"
       x="32.5"
       height="75.714287"
       width="165"
       id="rect2991"
       style="fill:none;stroke:#00aa00;stroke-width:5px;stroke-opacity:0.75" />
  </g>
  <g
     id="layer2"
     inkscape:groupmode="layer"
     inkscape:label="Layer 2"
     transform="matrix(0.8660254,-0.5,0.5,0.8660254,-42.092921,72.907079)">
    <path
       style="fill:#00aa00;fill-opacity:0.75;stroke:none"
       d="M 61.78125,74.65625 C 44.215207,74.65625 30,88.871457 30,106.4375 l 0,17.125 c 0,17.56604 14.215207,31.78125 31.78125,31.78125 l 106.4375,0 C 185.78479,155.34375 200,141.12854 200,123.5625 l 0,-17.125 C 200,88.871457 185.78479,74.65625 168.21875,74.65625 l -106.4375,0 z m 0,5 106.4375,0 C 183.10128,79.65625 195,91.554971 195,106.4375 l 0,17.125 c 0,14.88253 -11.89872,26.78125 -26.78125,26.78125 l -106.4375,0 C 46.898721,150.34375 35,138.44503 35,123.5625 l 0,-17.125 C 35,91.554971 46.898721,79.65625 61.78125,79.65625 z m 0,2.5 C 48.326964,82.15625 37.5,92.983214 37.5,106.4375 l 0,17.125 c 0,13.45429 10.826964,24.28125 24.28125,24.28125 l 106.4375,0 c 13.45429,0 24.28125,-10.82696 24.28125,-24.28125 l 0,-17.125 c 0,-13.454286 -10.82696,-24.28125 -24.28125,-24.28125 l -106.4375,0 z m 0.25,14.3125 c 4.492167,3.6e-5 7.885718,0.999384 10.15625,2.96875 2.270479,1.96943 3.448538,4.58727 3.5625,7.875 l -7.21875,0.3125 c -0.309267,-1.83917 -0.982769,-3.13181 -2,-3.9375 -1.017272,-0.80563 -2.528013,-1.21872 -4.5625,-1.21875 -2.099623,3e-5 -3.749361,0.41865 -4.9375,1.28125 -0.764984,0.55341 -1.15626,1.29104 -1.15625,2.21875 -1e-5,0.84638 0.377594,1.58531 1.09375,2.1875 0.911446,0.765 3.109361,1.54495 6.625,2.375 3.515604,0.8301 6.127906,1.70673 7.8125,2.59375 1.684543,0.88706 2.985323,2.08693 3.9375,3.625 0.952118,1.5381 1.437469,3.45639 1.4375,5.71875 -3.1e-5,2.05079 -0.579457,3.95964 -1.71875,5.75 -1.139351,1.79037 -2.729193,3.12923 -4.8125,4 -2.083356,0.87077 -4.703796,1.3125 -7.8125,1.3125 -4.524752,0 -7.981128,-1.06478 -10.40625,-3.15625 -2.425134,-2.09147 -3.871747,-5.12109 -4.34375,-9.125 l 7.03125,-0.6875 c 0.423168,2.36004 1.268545,4.08074 2.5625,5.1875 1.293933,1.10678 3.05272,1.65626 5.25,1.65625 2.327455,1e-5 4.069966,-0.48404 5.25,-1.46875 1.17999,-0.98469 1.781226,-2.15038 1.78125,-3.46875 -2.4e-5,-0.84634 -0.253604,-1.56216 -0.75,-2.15625 -0.496442,-0.59406 -1.356792,-1.09178 -2.59375,-1.53125 -0.846374,-0.29295 -2.7702,-0.81379 -5.78125,-1.5625 -3.873709,-0.96027 -6.593758,-2.16274 -8.15625,-3.5625 -2.19727,-1.96938 -3.312503,-4.35545 -3.3125,-7.1875 -3e-6,-1.82289 0.528968,-3.53806 1.5625,-5.125 1.033523,-1.586881 2.523756,-2.794888 4.46875,-3.625 1.944976,-0.830042 4.280586,-1.249964 7.03125,-1.25 z m 36.71875,0 c 5.27341,3.6e-5 9.49053,1.6348 12.65625,4.90625 3.16565,3.27151 4.74996,7.82945 4.75,13.65625 -4e-5,5.77801 -1.57751,10.29916 -4.71875,13.5625 -3.14131,3.26335 -7.33661,4.90625 -12.59375,4.90625 -5.32228,0 -9.546234,-1.62793 -12.6875,-4.875 -3.14128,-3.24706 -4.718752,-7.70962 -4.71875,-13.40625 -2e-6,-3.64581 0.565752,-6.71352 1.65625,-9.1875 0.813797,-1.82289 1.904617,-3.45765 3.3125,-4.90625 1.407869,-1.448534 2.948558,-2.518846 4.625,-3.21875 2.229804,-0.943974 4.805322,-1.437464 7.71875,-1.4375 z m 53.5625,0.625 13.21875,0 c 2.9785,3.6e-5 5.24998,0.231806 6.8125,0.6875 2.09958,0.618524 3.87758,1.702507 5.375,3.28125 1.49737,1.57881 2.65622,3.52574 3.4375,5.8125 0.78122,2.28681 1.15622,5.11591 1.15625,8.46875 -3e-5,2.94598 -0.36136,5.4616 -1.09375,7.59375 -0.89521,2.60417 -2.18362,4.73243 -3.84375,6.34375 -1.25328,1.22071 -2.93036,2.16016 -5.0625,2.84375 -1.59507,0.50456 -3.737,0.75 -6.40625,0.75 l -13.59375,0 0,-35.78125 z m -30.34375,0.28125 7.21875,0 0,29.46875 17.96875,0 0,6.03125 -25.1875,0 0,-35.5 z m -23.15625,5.28125 c -2.978532,3e-5 -5.364598,1.01989 -7.1875,3.0625 -1.822927,2.04267 -2.75001,5.13218 -2.75,9.25 -1e-5,4.05275 0.940745,7.12729 2.8125,9.21875 1.87173,2.09148 4.244124,3.12501 7.125,3.125 2.88084,1e-5 5.24639,-1.01855 7.09375,-3.09375 1.8473,-2.07518 2.78122,-5.19335 2.78125,-9.34375 -3e-5,-4.10154 -0.88903,-7.16925 -2.6875,-9.1875 -1.79853,-2.0182 -4.20901,-3.03122 -7.1875,-3.03125 z m 60.71875,0.5 0,23.6875 5.40625,0 c 2.01821,1e-5 3.4798,-0.11588 4.375,-0.34375 1.17185,-0.29296 2.13312,-0.76887 2.90625,-1.46875 0.77309,-0.69986 1.41794,-1.86555 1.90625,-3.46875 0.48826,-1.60318 0.71872,-3.79556 0.71875,-6.5625 -3e-5,-2.76691 -0.23049,-4.89386 -0.71875,-6.375 -0.48831,-1.48109 -1.18362,-2.60739 -2.0625,-3.4375 -0.87893,-0.83005 -1.99286,-1.3945 -3.34375,-1.6875 -1.00913,-0.22783 -2.99155,-0.34372 -5.9375,-0.34375 l -3.25,0 z"
       id="rect3043"
       inkscape:connector-curvature="0" />
  </g>
</svg>
