<?xml version="1.0" encoding="UTF-8" standalone="no"?>
<svg
   xmlns:dc="http://purl.org/dc/elements/1.1/"
   xmlns:cc="http://creativecommons.org/ns#"
   xmlns:rdf="http://www.w3.org/1999/02/22-rdf-syntax-ns#"
   xmlns:svg="http://www.w3.org/2000/svg"
   xmlns="http://www.w3.org/2000/svg"
   xmlns:sodipodi="http://sodipodi.sourceforge.net/DTD/sodipodi-0.dtd"
   xmlns:inkscape="http://www.inkscape.org/namespaces/inkscape"
   width="325.8028"
   height="277.96909"
   id="svg2"
   version="1.1"
   inkscape:version="0.48.4 r9939"
   sodipodi:docname="hotel.svg">
  <defs
     id="defs13" />
  <sodipodi:namedview
     pagecolor="#ffffff"
     bordercolor="#666666"
     borderopacity="1"
     objecttolerance="10"
     gridtolerance="10"
     guidetolerance="10"
     inkscape:pageopacity="0"
     inkscape:pageshadow="2"
     inkscape:window-width="1381"
     inkscape:window-height="480"
     id="namedview11"
     showgrid="false"
     inkscape:zoom="0.87376367"
     inkscape:cx="162.87632"
     inkscape:cy="139.46841"
     inkscape:window-x="0"
     inkscape:window-y="0"
     inkscape:window-maximized="0"
     inkscape:current-layer="svg2"
     fit-margin-top="0"
     fit-margin-left="0"
     fit-margin-right="0"
     fit-margin-bottom="0" />
  <metadata
     id="metadata3524">image/svg+xmlhome iconhome icon blue house property outline symbol<rdf:RDF>
  <cc:Work
     rdf:about="">
    <dc:format>image/svg+xml</dc:format>
    <dc:type
       rdf:resource="http://purl.org/dc/dcmitype/StillImage" />
    <dc:title />
  </cc:Work>
</rdf:RDF>
</metadata>
  <path
     style="font-size:medium;font-style:normal;font-variant:normal;font-weight:normal;font-stretch:normal;text-indent:0;text-align:start;text-decoration:none;line-height:normal;letter-spacing:normal;word-spacing:normal;text-transform:none;direction:ltr;block-progression:tb;writing-mode:lr-tb;text-anchor:start;baseline-shift:baseline;color:#000000;fill:#ff0000;fill-opacity:1;fill-rule:evenodd;stroke:#000000;stroke-width:5;marker:none;visibility:visible;display:inline;overflow:visible;enable-background:accumulate;font-family:Sans;-inkscape-font-specification:Sans"
     d="m 162.56741,2.5003374 c -3.77172,0.035963 -7.51677,1.4192716 -10.40625,3.84375 L 8.3486631,126.50034 c -5.1336051,4.29992 -7.1804627,11.92364 -4.8908895,18.21658 2.2895733,6.29294 8.7568814,10.81892 15.4533894,10.81467 l 25.5625,-0.0312 0.1875,103.5625 c 0.0071,4.29842 1.781913,8.56754 4.824247,11.60409 3.042334,3.03655 7.314831,4.80326 11.613253,4.80216 l 203.999997,-0.21875 c 4.29842,-0.007 8.56756,-1.78192 11.60411,-4.82426 3.03655,-3.04235 4.80325,-7.31486 4.80214,-11.61329 l -0.15625,-103.5625 25.5625,-0.0312 c 6.7097,-0.003 13.18283,-4.55598 15.45457,-10.86939 2.27174,-6.31342 0.18343,-13.94669 -4.98582,-18.22441 L 173.19241,6.3128374 c -2.9498,-2.460027 -6.7841,-3.8358625 -10.625,-3.8125 z"
     id="path2418"
     inkscape:connector-curvature="0"
     sodipodi:nodetypes="cccscccsccscccsccc" />
</svg>
